<svg width="386" height="258" viewBox="0 0 386 258" fill="none" xmlns="http://www.w3.org/2000/svg">
<line x1="2" y1="34.5" x2="338" y2="34.5" stroke="#8E8E93" stroke-dasharray="8 8"/>
<line x1="2" y1="98.5" x2="337" y2="98.5" stroke="#8E8E93" stroke-dasharray="8 8"/>
<line x1="6" y1="170.5" x2="335" y2="170.5" stroke="#8E8E93" stroke-dasharray="8 8"/>
<path d="M354.289 29.4375L349.578 40H348.062L352.758 29.8125H346.602V28.625H354.289V29.4375ZM363.222 35.1484C363.222 36.8411 362.933 38.099 362.355 38.9219C361.777 39.7448 360.874 40.1562 359.644 40.1562C358.431 40.1562 357.532 39.7552 356.949 38.9531C356.366 38.1458 356.064 36.9427 356.043 35.3438V33.4141C356.043 31.7422 356.332 30.5 356.91 29.6875C357.488 28.875 358.394 28.4688 359.629 28.4688C360.853 28.4688 361.754 28.862 362.332 29.6484C362.91 30.4297 363.207 31.638 363.222 33.2734V35.1484ZM361.777 33.1719C361.777 31.9479 361.605 31.0573 361.262 30.5C360.918 29.9375 360.374 29.6562 359.629 29.6562C358.889 29.6562 358.35 29.9349 358.012 30.4922C357.673 31.0495 357.499 31.9062 357.488 33.0625V35.375C357.488 36.6042 357.665 37.513 358.019 38.1016C358.379 38.6849 358.92 38.9766 359.644 38.9766C360.358 38.9766 360.887 38.7005 361.23 38.1484C361.579 37.5964 361.762 36.7266 361.777 35.5391V33.1719ZM372.578 29.4375L367.867 40H366.351L371.047 29.8125H364.89V28.625H372.578V29.4375Z" fill="#4F4F4F"/>
<path d="M353.047 100.18H354.625V101.359H353.047V104H351.594V101.359H346.414V100.508L351.508 92.625H353.047V100.18ZM348.055 100.18H351.594V94.6016L351.422 94.9141L348.055 100.18ZM363.222 99.1484C363.222 100.841 362.933 102.099 362.355 102.922C361.777 103.745 360.874 104.156 359.644 104.156C358.431 104.156 357.532 103.755 356.949 102.953C356.366 102.146 356.064 100.943 356.043 99.3438V97.4141C356.043 95.7422 356.332 94.5 356.91 93.6875C357.488 92.875 358.394 92.4688 359.629 92.4688C360.853 92.4688 361.754 92.862 362.332 93.6484C362.91 94.4297 363.207 95.638 363.222 97.2734V99.1484ZM361.777 97.1719C361.777 95.9479 361.605 95.0573 361.262 94.5C360.918 93.9375 360.374 93.6562 359.629 93.6562C358.889 93.6562 358.35 93.9349 358.012 94.4922C357.673 95.0495 357.499 95.9062 357.488 97.0625V99.375C357.488 100.604 357.665 101.513 358.019 102.102C358.379 102.685 358.92 102.977 359.644 102.977C360.358 102.977 360.887 102.701 361.23 102.148C361.579 101.596 361.762 100.727 361.777 99.5391V97.1719ZM372.367 99.1484C372.367 100.841 372.078 102.099 371.5 102.922C370.922 103.745 370.018 104.156 368.789 104.156C367.575 104.156 366.677 103.755 366.093 102.953C365.51 102.146 365.208 100.943 365.187 99.3438V97.4141C365.187 95.7422 365.476 94.5 366.054 93.6875C366.632 92.875 367.539 92.4688 368.773 92.4688C369.997 92.4688 370.898 92.862 371.476 93.6484C372.054 94.4297 372.351 95.638 372.367 97.2734V99.1484ZM370.922 97.1719C370.922 95.9479 370.75 95.0573 370.406 94.5C370.062 93.9375 369.518 93.6562 368.773 93.6562C368.034 93.6562 367.494 93.9349 367.156 94.4922C366.817 95.0495 366.643 95.9062 366.632 97.0625V99.375C366.632 100.604 366.81 101.513 367.164 102.102C367.523 102.685 368.065 102.977 368.789 102.977C369.502 102.977 370.031 102.701 370.375 102.148C370.724 101.596 370.906 100.727 370.922 99.5391V97.1719Z" fill="#4F4F4F"/>
<path d="M42.1897 254H34.7366V252.961L38.6741 248.586C39.2574 247.924 39.6584 247.388 39.8772 246.977C40.1011 246.56 40.2131 246.13 40.2131 245.688C40.2131 245.094 40.0334 244.607 39.6741 244.227C39.3147 243.846 38.8355 243.656 38.2366 243.656C37.5178 243.656 36.9579 243.862 36.5569 244.273C36.161 244.68 35.9631 245.247 35.9631 245.977H34.5178C34.5178 244.93 34.8538 244.083 35.5256 243.438C36.2027 242.792 37.1064 242.469 38.2366 242.469C39.2939 242.469 40.1298 242.747 40.7444 243.305C41.359 243.857 41.6663 244.594 41.6663 245.516C41.6663 246.635 40.9527 247.969 39.5256 249.516L36.4788 252.82H42.1897V254ZM51.0138 249.148C51.0138 250.841 50.7247 252.099 50.1466 252.922C49.5684 253.745 48.6648 254.156 47.4356 254.156C46.2221 254.156 45.3236 253.755 44.7403 252.953C44.157 252.146 43.8549 250.943 43.8341 249.344V247.414C43.8341 245.742 44.1231 244.5 44.7013 243.688C45.2794 242.875 46.1856 242.469 47.42 242.469C48.644 242.469 49.545 242.862 50.1231 243.648C50.7013 244.43 50.9981 245.638 51.0138 247.273V249.148ZM49.5684 247.172C49.5684 245.948 49.3966 245.057 49.0528 244.5C48.7091 243.938 48.1648 243.656 47.42 243.656C46.6804 243.656 46.1414 243.935 45.8028 244.492C45.4643 245.049 45.2898 245.906 45.2794 247.062V249.375C45.2794 250.604 45.4565 251.513 45.8106 252.102C46.17 252.685 46.7117 252.977 47.4356 252.977C48.1492 252.977 48.6778 252.701 49.0216 252.148C49.3705 251.596 49.5528 250.727 49.5684 249.539V247.172ZM57.7753 254H56.3222V244.367L53.4081 245.438V244.125L57.5487 242.57H57.7753V254ZM67.8416 242.617V243.844H67.5759C66.4509 243.865 65.5551 244.198 64.8884 244.844C64.2218 245.49 63.8364 246.398 63.7322 247.57C64.3311 246.883 65.1489 246.539 66.1853 246.539C67.1749 246.539 67.964 246.888 68.5525 247.586C69.1462 248.284 69.4431 249.185 69.4431 250.289C69.4431 251.461 69.1228 252.398 68.4822 253.102C67.8468 253.805 66.9926 254.156 65.9197 254.156C64.8311 254.156 63.9483 253.74 63.2712 252.906C62.5942 252.068 62.2556 250.99 62.2556 249.672V249.117C62.2556 247.023 62.7009 245.424 63.5916 244.32C64.4874 243.211 65.8181 242.643 67.5837 242.617H67.8416ZM65.9431 247.742C65.4483 247.742 64.9926 247.891 64.5759 248.188C64.1593 248.484 63.8702 248.857 63.7087 249.305V249.836C63.7087 250.773 63.9197 251.529 64.3416 252.102C64.7634 252.674 65.2895 252.961 65.9197 252.961C66.5707 252.961 67.0811 252.721 67.4509 252.242C67.8259 251.763 68.0134 251.135 68.0134 250.359C68.0134 249.578 67.8233 248.948 67.4431 248.469C67.0681 247.984 66.5681 247.742 65.9431 247.742Z" fill="#4F4F4F"/>
<path d="M122.19 254H114.737V252.961L118.674 248.586C119.257 247.924 119.658 247.388 119.877 246.977C120.101 246.56 120.213 246.13 120.213 245.688C120.213 245.094 120.033 244.607 119.674 244.227C119.315 243.846 118.836 243.656 118.237 243.656C117.518 243.656 116.958 243.862 116.557 244.273C116.161 244.68 115.963 245.247 115.963 245.977H114.518C114.518 244.93 114.854 244.083 115.526 243.438C116.203 242.792 117.106 242.469 118.237 242.469C119.294 242.469 120.13 242.747 120.744 243.305C121.359 243.857 121.666 244.594 121.666 245.516C121.666 246.635 120.953 247.969 119.526 249.516L116.479 252.82H122.19V254ZM131.014 249.148C131.014 250.841 130.725 252.099 130.147 252.922C129.568 253.745 128.665 254.156 127.436 254.156C126.222 254.156 125.324 253.755 124.74 252.953C124.157 252.146 123.855 250.943 123.834 249.344V247.414C123.834 245.742 124.123 244.5 124.701 243.688C125.279 242.875 126.186 242.469 127.42 242.469C128.644 242.469 129.545 242.862 130.123 243.648C130.701 244.43 130.998 245.638 131.014 247.273V249.148ZM129.568 247.172C129.568 245.948 129.397 245.057 129.053 244.5C128.709 243.938 128.165 243.656 127.42 243.656C126.68 243.656 126.141 243.935 125.803 244.492C125.464 245.049 125.29 245.906 125.279 247.062V249.375C125.279 250.604 125.456 251.513 125.811 252.102C126.17 252.685 126.712 252.977 127.436 252.977C128.149 252.977 128.678 252.701 129.022 252.148C129.371 251.596 129.553 250.727 129.568 249.539V247.172ZM137.775 254H136.322V244.367L133.408 245.438V244.125L137.549 242.57H137.775V254ZM149.513 243.438L144.802 254H143.287L147.982 243.812H141.826V242.625H149.513V243.438Z" fill="#4F4F4F"/>
<path d="M201.19 254H193.737V252.961L197.674 248.586C198.257 247.924 198.658 247.388 198.877 246.977C199.101 246.56 199.213 246.13 199.213 245.688C199.213 245.094 199.033 244.607 198.674 244.227C198.315 243.846 197.836 243.656 197.237 243.656C196.518 243.656 195.958 243.862 195.557 244.273C195.161 244.68 194.963 245.247 194.963 245.977H193.518C193.518 244.93 193.854 244.083 194.526 243.438C195.203 242.792 196.106 242.469 197.237 242.469C198.294 242.469 199.13 242.747 199.744 243.305C200.359 243.857 200.666 244.594 200.666 245.516C200.666 246.635 199.953 247.969 198.526 249.516L195.479 252.82H201.19V254ZM210.014 249.148C210.014 250.841 209.725 252.099 209.147 252.922C208.568 253.745 207.665 254.156 206.436 254.156C205.222 254.156 204.324 253.755 203.74 252.953C203.157 252.146 202.855 250.943 202.834 249.344V247.414C202.834 245.742 203.123 244.5 203.701 243.688C204.279 242.875 205.186 242.469 206.42 242.469C207.644 242.469 208.545 242.862 209.123 243.648C209.701 244.43 209.998 245.638 210.014 247.273V249.148ZM208.568 247.172C208.568 245.948 208.397 245.057 208.053 244.5C207.709 243.938 207.165 243.656 206.42 243.656C205.68 243.656 205.141 243.935 204.803 244.492C204.464 245.049 204.29 245.906 204.279 247.062V249.375C204.279 250.604 204.456 251.513 204.811 252.102C205.17 252.685 205.712 252.977 206.436 252.977C207.149 252.977 207.678 252.701 208.022 252.148C208.371 251.596 208.553 250.727 208.568 249.539V247.172ZM216.775 254H215.322V244.367L212.408 245.438V244.125L216.549 242.57H216.775V254ZM228.068 245.594C228.068 246.161 227.917 246.667 227.615 247.109C227.318 247.552 226.914 247.898 226.404 248.148C226.998 248.404 227.467 248.776 227.81 249.266C228.159 249.755 228.334 250.31 228.334 250.93C228.334 251.914 228 252.698 227.334 253.281C226.672 253.865 225.8 254.156 224.717 254.156C223.623 254.156 222.745 253.865 222.084 253.281C221.427 252.693 221.099 251.909 221.099 250.93C221.099 250.315 221.266 249.76 221.599 249.266C221.938 248.771 222.404 248.396 222.998 248.141C222.493 247.891 222.094 247.544 221.802 247.102C221.511 246.659 221.365 246.156 221.365 245.594C221.365 244.635 221.672 243.875 222.287 243.312C222.901 242.75 223.711 242.469 224.717 242.469C225.717 242.469 226.524 242.75 227.138 243.312C227.758 243.875 228.068 244.635 228.068 245.594ZM226.888 250.898C226.888 250.263 226.685 249.745 226.279 249.344C225.878 248.943 225.352 248.742 224.701 248.742C224.05 248.742 223.526 248.94 223.131 249.336C222.74 249.732 222.545 250.253 222.545 250.898C222.545 251.544 222.735 252.052 223.115 252.422C223.5 252.792 224.034 252.977 224.717 252.977C225.394 252.977 225.925 252.792 226.31 252.422C226.696 252.047 226.888 251.539 226.888 250.898ZM224.717 243.656C224.149 243.656 223.688 243.833 223.334 244.188C222.985 244.536 222.81 245.013 222.81 245.617C222.81 246.195 222.982 246.664 223.326 247.023C223.675 247.378 224.138 247.555 224.717 247.555C225.295 247.555 225.756 247.378 226.099 247.023C226.448 246.664 226.623 246.195 226.623 245.617C226.623 245.039 226.443 244.568 226.084 244.203C225.724 243.839 225.269 243.656 224.717 243.656Z" fill="#4F4F4F"/>
<path d="M282.19 254H274.737V252.961L278.674 248.586C279.257 247.924 279.658 247.388 279.877 246.977C280.101 246.56 280.213 246.13 280.213 245.688C280.213 245.094 280.033 244.607 279.674 244.227C279.315 243.846 278.836 243.656 278.237 243.656C277.518 243.656 276.958 243.862 276.557 244.273C276.161 244.68 275.963 245.247 275.963 245.977H274.518C274.518 244.93 274.854 244.083 275.526 243.438C276.203 242.792 277.106 242.469 278.237 242.469C279.294 242.469 280.13 242.747 280.744 243.305C281.359 243.857 281.666 244.594 281.666 245.516C281.666 246.635 280.953 247.969 279.526 249.516L276.479 252.82H282.19V254ZM291.014 249.148C291.014 250.841 290.725 252.099 290.147 252.922C289.568 253.745 288.665 254.156 287.436 254.156C286.222 254.156 285.324 253.755 284.74 252.953C284.157 252.146 283.855 250.943 283.834 249.344V247.414C283.834 245.742 284.123 244.5 284.701 243.688C285.279 242.875 286.186 242.469 287.42 242.469C288.644 242.469 289.545 242.862 290.123 243.648C290.701 244.43 290.998 245.638 291.014 247.273V249.148ZM289.568 247.172C289.568 245.948 289.397 245.057 289.053 244.5C288.709 243.938 288.165 243.656 287.42 243.656C286.68 243.656 286.141 243.935 285.803 244.492C285.464 245.049 285.29 245.906 285.279 247.062V249.375C285.279 250.604 285.456 251.513 285.811 252.102C286.17 252.685 286.712 252.977 287.436 252.977C288.149 252.977 288.678 252.701 289.022 252.148C289.371 251.596 289.553 250.727 289.568 249.539V247.172ZM297.775 254H296.322V244.367L293.408 245.438V244.125L297.549 242.57H297.775V254ZM307.709 249C307.407 249.359 307.045 249.648 306.623 249.867C306.206 250.086 305.748 250.195 305.248 250.195C304.592 250.195 304.019 250.034 303.529 249.711C303.045 249.388 302.67 248.935 302.404 248.352C302.138 247.763 302.006 247.115 302.006 246.406C302.006 245.646 302.149 244.961 302.435 244.352C302.727 243.742 303.138 243.276 303.67 242.953C304.201 242.63 304.821 242.469 305.529 242.469C306.654 242.469 307.539 242.891 308.185 243.734C308.836 244.573 309.162 245.719 309.162 247.172V247.594C309.162 249.807 308.724 251.424 307.849 252.445C306.974 253.461 305.654 253.982 303.888 254.008H303.607V252.789H303.912C305.105 252.768 306.021 252.458 306.662 251.859C307.302 251.255 307.651 250.302 307.709 249ZM305.482 249C305.967 249 306.412 248.852 306.818 248.555C307.23 248.258 307.529 247.891 307.717 247.453V246.875C307.717 245.927 307.511 245.156 307.099 244.562C306.688 243.969 306.167 243.672 305.537 243.672C304.901 243.672 304.391 243.917 304.006 244.406C303.62 244.891 303.427 245.531 303.427 246.328C303.427 247.104 303.612 247.745 303.982 248.25C304.357 248.75 304.857 249 305.482 249Z" fill="#4F4F4F"/>
<path d="M354.398 171H346.945V169.961L350.883 165.586C351.466 164.924 351.867 164.388 352.086 163.977C352.31 163.56 352.422 163.13 352.422 162.688C352.422 162.094 352.242 161.607 351.883 161.227C351.523 160.846 351.044 160.656 350.445 160.656C349.727 160.656 349.167 160.862 348.766 161.273C348.37 161.68 348.172 162.247 348.172 162.977H346.727C346.727 161.93 347.062 161.083 347.734 160.438C348.411 159.792 349.315 159.469 350.445 159.469C351.503 159.469 352.339 159.747 352.953 160.305C353.568 160.857 353.875 161.594 353.875 162.516C353.875 163.635 353.161 164.969 351.734 166.516L348.688 169.82H354.398V171ZM363.222 166.148C363.222 167.841 362.933 169.099 362.355 169.922C361.777 170.745 360.874 171.156 359.644 171.156C358.431 171.156 357.532 170.755 356.949 169.953C356.366 169.146 356.064 167.943 356.043 166.344V164.414C356.043 162.742 356.332 161.5 356.91 160.688C357.488 159.875 358.394 159.469 359.629 159.469C360.853 159.469 361.754 159.862 362.332 160.648C362.91 161.43 363.207 162.638 363.222 164.273V166.148ZM361.777 164.172C361.777 162.948 361.605 162.057 361.262 161.5C360.918 160.938 360.374 160.656 359.629 160.656C358.889 160.656 358.35 160.935 358.012 161.492C357.673 162.049 357.499 162.906 357.488 164.062V166.375C357.488 167.604 357.665 168.513 358.019 169.102C358.379 169.685 358.92 169.977 359.644 169.977C360.358 169.977 360.887 169.701 361.23 169.148C361.579 168.596 361.762 167.727 361.777 166.539V164.172ZM372.367 166.148C372.367 167.841 372.078 169.099 371.5 169.922C370.922 170.745 370.018 171.156 368.789 171.156C367.575 171.156 366.677 170.755 366.093 169.953C365.51 169.146 365.208 167.943 365.187 166.344V164.414C365.187 162.742 365.476 161.5 366.054 160.688C366.632 159.875 367.539 159.469 368.773 159.469C369.997 159.469 370.898 159.862 371.476 160.648C372.054 161.43 372.351 162.638 372.367 164.273V166.148ZM370.922 164.172C370.922 162.948 370.75 162.057 370.406 161.5C370.062 160.938 369.518 160.656 368.773 160.656C368.034 160.656 367.494 160.935 367.156 161.492C366.817 162.049 366.643 162.906 366.632 164.062V166.375C366.632 167.604 366.81 168.513 367.164 169.102C367.523 169.685 368.065 169.977 368.789 169.977C369.502 169.977 370.031 169.701 370.375 169.148C370.724 168.596 370.906 167.727 370.922 166.539V164.172Z" fill="#4F4F4F"/>
<path d="M354.078 226.148C354.078 227.841 353.789 229.099 353.211 229.922C352.633 230.745 351.729 231.156 350.5 231.156C349.286 231.156 348.388 230.755 347.805 229.953C347.221 229.146 346.919 227.943 346.898 226.344V224.414C346.898 222.742 347.188 221.5 347.766 220.688C348.344 219.875 349.25 219.469 350.484 219.469C351.708 219.469 352.609 219.862 353.188 220.648C353.766 221.43 354.062 222.638 354.078 224.273V226.148ZM352.633 224.172C352.633 222.948 352.461 222.057 352.117 221.5C351.773 220.938 351.229 220.656 350.484 220.656C349.745 220.656 349.206 220.935 348.867 221.492C348.529 222.049 348.354 222.906 348.344 224.062V226.375C348.344 227.604 348.521 228.513 348.875 229.102C349.234 229.685 349.776 229.977 350.5 229.977C351.214 229.977 351.742 229.701 352.086 229.148C352.435 228.596 352.617 227.727 352.633 226.539V224.172Z" fill="#4F4F4F"/>
<path d="M296.438 60L338 35V133H2V116.5L86.875 109L139.375 73.5L162.562 67.5L182.25 60H267.562H296.438Z" fill="#F4A26C" stroke="white" stroke-width="3"/>
<path d="M296.438 105.5L338 99V178.5L2 219V129.5L86 119L135.875 129.5L162.562 113L185.312 119H266.688L296.438 105.5Z" fill="#3FAEA3" stroke="white" stroke-width="3"/>
<path d="M295.562 147.153L338 138V228H2V214.78L86 197.492H134.562L162.562 161.39L190.562 179.186L266.688 167.492L295.562 147.153Z" fill="#914DF0" stroke="white" stroke-width="3"/>
<line x1="2.00298" y1="226" x2="338.003" y2="227" stroke="#8E8E93" stroke-width="2"/>
<path d="M355.18 3.85938H351.523V14H350.031V3.85938H346.383V2.625H355.18V3.85938ZM355.637 9.69531C355.637 8.86719 355.798 8.1224 356.121 7.46094C356.449 6.79948 356.902 6.28906 357.48 5.92969C358.064 5.57031 358.728 5.39062 359.472 5.39062C360.624 5.39062 361.553 5.78906 362.262 6.58594C362.975 7.38281 363.332 8.44271 363.332 9.76562V9.86719C363.332 10.6901 363.173 11.4297 362.855 12.0859C362.543 12.737 362.092 13.2448 361.504 13.6094C360.92 13.974 360.249 14.1562 359.488 14.1562C358.342 14.1562 357.413 13.7578 356.699 12.9609C355.991 12.1641 355.637 11.1094 355.637 9.79688V9.69531ZM357.09 9.86719C357.09 10.8047 357.306 11.5573 357.738 12.125C358.176 12.6927 358.759 12.9766 359.488 12.9766C360.222 12.9766 360.806 12.6901 361.238 12.1172C361.67 11.5391 361.887 10.7318 361.887 9.69531C361.887 8.76823 361.665 8.01823 361.222 7.44531C360.785 6.86719 360.202 6.57812 359.472 6.57812C358.759 6.57812 358.183 6.86198 357.746 7.42969C357.308 7.9974 357.09 8.8099 357.09 9.86719ZM367.265 3.5V5.54688H368.843V6.66406H367.265V11.9062C367.265 12.2448 367.336 12.5 367.476 12.6719C367.617 12.8385 367.856 12.9219 368.195 12.9219C368.362 12.9219 368.591 12.8906 368.882 12.8281V14C368.502 14.1042 368.132 14.1562 367.773 14.1562C367.127 14.1562 366.64 13.9609 366.312 13.5703C365.984 13.1797 365.82 12.625 365.82 11.9062V6.66406H364.281V5.54688H365.82V3.5H367.265ZM375.917 14C375.834 13.8333 375.766 13.5365 375.714 13.1094C375.042 13.8073 374.24 14.1562 373.308 14.1562C372.475 14.1562 371.79 13.9219 371.253 13.4531C370.722 12.9792 370.457 12.3802 370.457 11.6562C370.457 10.776 370.79 10.0938 371.457 9.60938C372.128 9.11979 373.071 8.875 374.285 8.875H375.691V8.21094C375.691 7.70573 375.54 7.30469 375.238 7.00781C374.936 6.70573 374.49 6.55469 373.902 6.55469C373.386 6.55469 372.954 6.6849 372.605 6.94531C372.256 7.20573 372.082 7.52083 372.082 7.89062H370.628C370.628 7.46875 370.777 7.0625 371.074 6.67188C371.376 6.27604 371.782 5.96354 372.292 5.73438C372.808 5.50521 373.373 5.39062 373.988 5.39062C374.962 5.39062 375.725 5.63542 376.277 6.125C376.829 6.60938 377.115 7.27865 377.136 8.13281V12.0234C377.136 12.7995 377.235 13.4167 377.433 13.875V14H375.917ZM373.519 12.8984C373.972 12.8984 374.402 12.7812 374.808 12.5469C375.214 12.3125 375.509 12.0078 375.691 11.6328V9.89844H374.558C372.787 9.89844 371.902 10.4167 371.902 11.4531C371.902 11.9062 372.053 12.2604 372.355 12.5156C372.657 12.7708 373.045 12.8984 373.519 12.8984ZM381.132 14H379.687V2H381.132V14Z" fill="#4F4F4F"/>
<line x1="52" y1="227" x2="52" y2="235" stroke="#8E8E93" stroke-width="2"/>
<line x1="132" y1="227" x2="132" y2="235" stroke="#8E8E93" stroke-width="2"/>
<line x1="212" y1="227" x2="212" y2="235" stroke="#8E8E93" stroke-width="2"/>
<line x1="292" y1="227" x2="292" y2="235" stroke="#8E8E93" stroke-width="2"/>
</svg>
