<svg width="264" height="264" viewBox="0 0 264 264" fill="none" xmlns="http://www.w3.org/2000/svg">
  <path d="M132 0C107.908 -2.87296e-07 84.2751 6.5936 63.6628 19.0663L82.7972 50.6877C97.6381 41.7074 114.654 36.96 132 36.96V0Z" fill="#EB5757" />
  <path d="M62.0666 20.0477C44.805 30.8305 30.2707 45.4588 19.5993 62.7895L51.0715 82.1684C58.7549 69.6903 69.2196 59.158 81.6479 51.3943L62.0666 20.0477Z" fill="#EAAB00" />
  <path d="M18.674 64.3154C1.65856 92.8047 -4.00229 126.658 2.81868 159.133L38.9894 151.536C34.0784 128.153 38.1542 103.779 50.4052 83.2671L18.674 64.3154Z" fill="#A84069" />
  <path d="M3.17369 160.771C9.33453 188.357 24.1876 213.237 45.5471 231.749L69.7539 203.819C54.3751 190.491 43.6809 172.577 39.2451 152.715L3.17369 160.771Z" fill="#00B2A9" />
  <path d="M46.8765 232.886C70.1131 252.492 99.4053 263.476 129.804 263.982L130.419 227.027C108.532 226.663 87.4414 218.754 70.711 204.638L46.8765 232.886Z" fill="#2D9CDB" />
  <path d="M131.64 264C161.885 264.082 191.24 253.776 214.796 234.805L191.613 206.02C174.653 219.679 153.517 227.099 131.741 227.04L131.64 264Z" fill="#BB6BD9" />
  <path d="M216.322 233.557C236.853 216.51 251.735 193.641 259.006 167.965C266.277 142.289 265.595 115.012 257.05 89.7317L222.036 101.567C228.188 119.769 228.679 139.408 223.444 157.895C218.209 176.381 207.494 192.847 192.712 205.121L216.322 233.557Z" fill="#4CD964" />
  <path d="M256.476 88.0723C247.515 62.6786 231.001 40.6332 209.151 24.894C187.301 9.15483 161.16 0.474924 134.235 0.0189266L133.609 36.9736C152.995 37.3019 171.817 43.5515 187.549 54.8837C203.281 66.2159 215.171 82.0886 221.623 100.372L256.476 88.0723Z" fill="#8D43FF" />
</svg>