<svg width="127" height="120" viewBox="0 0 127 120" fill="none" xmlns="http://www.w3.org/2000/svg">
  <g clip-path="url(#clip0_233_1625)">
    <path d="M76.2923 6.73269L10.6228 20.823L30.091 111.557L95.7605 97.4666L76.2923 6.73269Z" fill="#E0E0E0" />
    <g opacity="0.5">
      <path opacity="0.5" d="M75.5125 8.50456L12.0625 22.1187L30.8727 109.786L94.3227 96.1715L75.5125 8.50456Z" fill="url(#paint0_linear_233_1625)" />
    </g>
    <path d="M74.8425 9.32333L13.0078 22.5908L31.4024 108.321L93.2371 95.0534L74.8425 9.32333Z" fill="#FAFAFA" />
    <path d="M58.5465 8.93232L27.8711 15.5142L29.4655 22.9448L60.1409 16.363L58.5465 8.93232Z" fill="url(#paint1_linear_233_1625)" />
    <path d="M41.6506 4.96578C39.2823 5.47449 37.7838 7.85202 38.3048 10.2757C38.8258 12.6993 41.1665 14.2546 43.5302 13.7459C45.8939 13.2372 47.3969 10.8597 46.8759 8.43603C46.3549 6.01239 44.0189 4.45708 41.6506 4.96578ZM43.1367 11.897C42.6362 12.0164 42.1115 11.9841 41.6294 11.8041C41.1473 11.6241 40.7297 11.3047 40.4299 10.8865C40.13 10.4683 39.9615 9.97035 39.9457 9.45602C39.9299 8.94169 40.0677 8.43431 40.3413 7.99854C40.615 7.56277 41.0122 7.21835 41.4823 7.00917C41.9525 6.8 42.4742 6.73554 42.9811 6.82401C43.4881 6.91248 43.9571 7.14987 44.3286 7.50594C44.7001 7.862 44.9572 8.32061 45.067 8.82332C45.143 9.15193 45.1532 9.4923 45.0972 9.82488C45.0412 10.1575 44.92 10.4757 44.7406 10.7613C44.5613 11.0469 44.3272 11.2943 44.052 11.4892C43.7767 11.6841 43.4657 11.8227 43.1367 11.897Z" fill="url(#paint2_linear_233_1625)" />
    <path d="M58.155 8.68303L28.1257 15.1262L29.6498 22.2293L59.6791 15.7861L58.155 8.68303Z" fill="#2F80ED" />
    <path d="M41.6505 4.9657C40.8204 5.14386 40.0618 5.56414 39.4706 6.17341C38.8795 6.78268 38.4822 7.55357 38.3291 8.38861C38.1761 9.22364 38.274 10.0853 38.6107 10.8647C38.9473 11.644 39.5075 12.3061 40.2204 12.767C40.9332 13.228 41.7668 13.4673 42.6156 13.4546C43.4645 13.4418 44.2905 13.1777 44.9892 12.6955C45.688 12.2133 46.228 11.5348 46.5411 10.7457C46.8542 9.95656 46.9263 9.09234 46.7482 8.26227C46.63 7.71108 46.4043 7.18857 46.0841 6.72459C45.764 6.2606 45.3555 5.86424 44.8821 5.55811C44.4088 5.25199 43.8797 5.04212 43.3252 4.94047C42.7707 4.83882 42.2016 4.8474 41.6505 4.9657ZM43.0705 11.5896C42.5914 11.6924 42.0926 11.6508 41.6371 11.4701C41.1816 11.2894 40.79 10.9777 40.5117 10.5744C40.2334 10.171 40.0809 9.69427 40.0736 9.20431C40.0663 8.71436 40.2044 8.23324 40.4706 7.82179C40.7367 7.41035 41.1188 7.08706 41.5687 6.89283C42.0186 6.69859 42.5159 6.64212 42.9979 6.73056C43.4799 6.819 43.9248 7.04838 44.2764 7.38969C44.628 7.731 44.8704 8.1689 44.9731 8.64803C45.1108 9.2904 44.9878 9.96117 44.631 10.5128C44.2742 11.0644 43.7129 11.4518 43.0705 11.5896Z" fill="#2F80ED" />
    <path d="M106.798 17.9673H39.6343V110.766H106.798V17.9673Z" fill="#E0E0E0" />
    <g opacity="0.5">
      <path opacity="0.5" d="M105.664 19.5366H40.77V109.199H105.664V19.5366Z" fill="url(#paint3_linear_233_1625)" />
    </g>
    <path d="M104.837 20.1975H41.5952V107.879H104.837V20.1975Z" fill="white" />
    <path d="M88.9859 16.395H57.6123V23.9948H88.9859V16.395Z" fill="url(#paint4_linear_233_1625)" />
    <path d="M73.2993 8.97681C70.8772 8.97681 68.9131 10.987 68.9131 13.4675C68.9131 15.948 70.8772 17.9583 73.2993 17.9583C75.7214 17.9583 77.6855 15.948 77.6855 13.4675C77.6855 10.987 75.7214 8.97681 73.2993 8.97681ZM73.2993 16.0587C72.7844 16.0709 72.2775 15.9294 71.8434 15.6522C71.4092 15.375 71.0676 14.9747 70.862 14.5025C70.6564 14.0302 70.5963 13.5074 70.6892 13.0008C70.7821 12.4941 71.0239 12.0267 71.3837 11.6582C71.7436 11.2896 72.205 11.0366 72.7093 10.9316C73.2135 10.8265 73.7376 10.8741 74.2147 11.0683C74.6918 11.2625 75.1001 11.5944 75.3877 12.0218C75.6752 12.4491 75.8288 12.9525 75.829 13.4675C75.8339 14.1445 75.5705 14.7959 75.0965 15.2791C74.6224 15.7624 73.9762 16.0383 73.2993 16.0464V16.0587Z" fill="url(#paint5_linear_233_1625)" />
    <path d="M88.6556 16.0693H57.9429V23.3341H88.6556V16.0693Z" fill="#2F80ED" />
    <path d="M73.2993 8.97681C72.4503 8.97681 71.6204 9.22856 70.9145 9.70022C70.2086 10.1719 69.6585 10.8423 69.3336 11.6266C69.0087 12.411 68.9237 13.274 69.0893 14.1067C69.2549 14.9394 69.6638 15.7042 70.2641 16.3045C70.8644 16.9048 71.6292 17.3136 72.4619 17.4793C73.2946 17.6449 74.1576 17.5599 74.942 17.235C75.7263 16.9101 76.3967 16.3599 76.8684 15.654C77.3401 14.9481 77.5918 14.1182 77.5918 13.2693C77.5918 12.1308 77.1396 11.039 76.3346 10.234C75.5296 9.42905 74.4378 8.97681 73.2993 8.97681ZM73.2993 15.7467C72.8097 15.7461 72.3313 15.6004 71.9244 15.3281C71.5175 15.0558 71.2005 14.669 71.0132 14.2166C70.826 13.7642 70.7771 13.2665 70.8725 12.7863C70.9679 12.3061 71.2035 11.865 71.5495 11.5186C71.8955 11.1721 72.3364 10.936 72.8164 10.84C73.2965 10.7439 73.7943 10.7923 74.2469 10.979C74.6995 11.1656 75.0867 11.4822 75.3595 11.8887C75.6324 12.2953 75.7786 12.7735 75.7798 13.2631C75.7796 13.5886 75.7153 13.9108 75.5905 14.2114C75.4657 14.512 75.2829 14.7851 75.0526 15.015C74.8222 15.245 74.5488 15.4272 74.248 15.5515C73.9472 15.6757 73.6248 15.7394 73.2993 15.739V15.7467Z" fill="#2F80ED" />
    <g opacity="0.5">
      <path opacity="0.5" d="M2.92479 113.275H2.34692V116.553H2.92479V113.275Z" fill="#47E6B1" />
      <path opacity="0.5" d="M4.27563 115.204V114.626H0.997508V115.204H4.27563Z" fill="#47E6B1" />
    </g>
    <g opacity="0.5">
      <path opacity="0.5" d="M69.9658 0H69.3879V3.27813H69.9658V0Z" fill="#47E6B1" />
      <path opacity="0.5" d="M71.3167 1.92746V1.34961L68.0385 1.34961V1.92746L71.3167 1.92746Z" fill="#47E6B1" />
    </g>
    <path opacity="0.5" d="M118.505 118.732C118.345 118.663 118.217 118.537 118.144 118.379C118.071 118.222 118.059 118.042 118.11 117.876C118.118 117.851 118.123 117.824 118.125 117.798C118.13 117.722 118.11 117.646 118.068 117.582C118.026 117.518 117.965 117.47 117.893 117.443C117.822 117.417 117.744 117.414 117.671 117.436C117.597 117.457 117.533 117.502 117.487 117.563C117.471 117.584 117.458 117.607 117.447 117.632C117.378 117.791 117.252 117.919 117.094 117.992C116.937 118.065 116.758 118.077 116.591 118.027C116.566 118.019 116.539 118.013 116.513 118.011C116.437 118.007 116.361 118.027 116.297 118.069C116.233 118.11 116.185 118.171 116.158 118.243C116.132 118.314 116.129 118.393 116.151 118.466C116.172 118.539 116.217 118.603 116.278 118.649C116.299 118.665 116.322 118.679 116.347 118.689C116.506 118.759 116.635 118.884 116.707 119.042C116.78 119.2 116.792 119.379 116.742 119.545C116.734 119.571 116.729 119.597 116.726 119.624C116.722 119.7 116.742 119.775 116.784 119.839C116.825 119.903 116.886 119.952 116.958 119.978C117.03 120.004 117.108 120.007 117.181 119.986C117.254 119.964 117.318 119.92 117.364 119.859C117.38 119.837 117.394 119.814 117.404 119.79C117.474 119.63 117.599 119.502 117.757 119.429C117.915 119.356 118.094 119.344 118.26 119.395C118.286 119.403 118.312 119.408 118.339 119.41C118.415 119.414 118.49 119.394 118.554 119.353C118.618 119.311 118.667 119.25 118.693 119.178C118.719 119.107 118.722 119.029 118.701 118.955C118.679 118.882 118.635 118.818 118.574 118.772C118.552 118.756 118.529 118.743 118.505 118.732Z" fill="#4D8AF0" />
    <path opacity="0.5" d="M21.0044 87.217C20.845 87.1477 20.7167 87.0221 20.6438 86.8643C20.571 86.7064 20.5588 86.5273 20.6094 86.361C20.6176 86.3356 20.6227 86.3093 20.6248 86.2826C20.6294 86.2065 20.6093 86.1309 20.5676 86.0671C20.5259 86.0033 20.4647 85.9545 20.3932 85.9282C20.3217 85.9018 20.2435 85.8991 20.1704 85.9206C20.0972 85.9421 20.0329 85.9866 19.987 86.0475C19.971 86.0689 19.9576 86.0921 19.947 86.1166C19.8776 86.276 19.7521 86.4044 19.5942 86.4772C19.4364 86.55 19.2573 86.5623 19.091 86.5116C19.0655 86.5034 19.0392 86.4983 19.0126 86.4963C18.9365 86.4917 18.8609 86.5117 18.7971 86.5534C18.7332 86.5951 18.6845 86.6563 18.6581 86.7278C18.6318 86.7994 18.6291 86.8775 18.6506 86.9507C18.6721 87.0238 18.7166 87.0881 18.7775 87.134C18.7989 87.15 18.8221 87.1634 18.8466 87.174C19.006 87.2434 19.1343 87.3689 19.2072 87.5268C19.28 87.6846 19.2922 87.8638 19.2416 88.03C19.2334 88.0555 19.2283 88.0818 19.2262 88.1084C19.2216 88.1845 19.2417 88.2601 19.2834 88.324C19.3251 88.3878 19.3862 88.4365 19.4578 88.4629C19.5293 88.4893 19.6075 88.4919 19.6806 88.4704C19.7538 88.4489 19.8181 88.4044 19.864 88.3436C19.88 88.3222 19.8934 88.2989 19.904 88.2744C19.9734 88.115 20.0989 87.9867 20.2568 87.9139C20.4146 87.841 20.5937 87.8288 20.76 87.8794C20.7854 87.8876 20.8118 87.8928 20.8384 87.8948C20.9145 87.8994 20.9901 87.8793 21.0539 87.8376C21.1178 87.7959 21.1665 87.7348 21.1928 87.6632C21.2192 87.5917 21.2219 87.5135 21.2004 87.4404C21.1789 87.3672 21.1344 87.3029 21.0735 87.257C21.0521 87.241 21.0289 87.2276 21.0044 87.217Z" fill="#FDD835" />
    <path opacity="0.5" d="M102.214 10.4785C102.054 10.4091 101.926 10.2836 101.853 10.1257C101.78 9.96787 101.768 9.78876 101.819 9.62247C101.827 9.59704 101.832 9.57073 101.834 9.54409C101.839 9.46798 101.819 9.39241 101.777 9.32857C101.735 9.26473 101.674 9.21602 101.603 9.18964C101.531 9.16326 101.453 9.16062 101.38 9.18211C101.307 9.2036 101.242 9.24807 101.196 9.30895C101.18 9.33036 101.167 9.35357 101.156 9.37811C101.087 9.5375 100.962 9.66581 100.804 9.73864C100.646 9.81147 100.467 9.82373 100.3 9.77308C100.275 9.76491 100.249 9.75975 100.222 9.75771C100.146 9.75313 100.07 9.77317 100.007 9.81488C99.9427 9.85658 99.894 9.91774 99.8676 9.98928C99.8412 10.0608 99.8386 10.139 99.8601 10.2121C99.8816 10.2853 99.9261 10.3496 99.9869 10.3955C100.008 10.4115 100.032 10.4249 100.056 10.4355C100.215 10.5049 100.344 10.6304 100.417 10.7883C100.489 10.9461 100.502 11.1252 100.451 11.2915C100.443 11.3169 100.438 11.3432 100.436 11.3699C100.431 11.446 100.451 11.5216 100.493 11.5854C100.535 11.6492 100.596 11.698 100.667 11.7243C100.739 11.7507 100.817 11.7534 100.89 11.7319C100.963 11.7104 101.028 11.6659 101.074 11.605C101.089 11.5836 101.103 11.5604 101.113 11.5359C101.183 11.3765 101.308 11.2482 101.466 11.1753C101.624 11.1025 101.803 11.0902 101.969 11.1409C101.995 11.1491 102.021 11.1542 102.048 11.1563C102.124 11.1608 102.2 11.1408 102.263 11.0991C102.327 11.0574 102.376 10.9962 102.402 10.9247C102.429 10.8531 102.431 10.775 102.41 10.7018C102.388 10.6287 102.344 10.5644 102.283 10.5185C102.262 10.5025 102.238 10.4891 102.214 10.4785Z" fill="#FDD835" />
    <path opacity="0.5" d="M124.892 49.4871C125.531 49.4871 126.049 48.969 126.049 48.3299C126.049 47.6907 125.531 47.1726 124.892 47.1726C124.253 47.1726 123.735 47.6907 123.735 48.3299C123.735 48.969 124.253 49.4871 124.892 49.4871Z" fill="#F55F44" />
    <path opacity="0.5" d="M35.4602 115.907C36.0994 115.907 36.6175 115.389 36.6175 114.75C36.6175 114.111 36.0994 113.593 35.4602 113.593C34.8211 113.593 34.303 114.111 34.303 114.75C34.303 115.389 34.8211 115.907 35.4602 115.907Z" fill="#F55F44" />
    <path opacity="0.5" d="M113.007 74.501C113.646 74.501 114.165 73.9829 114.165 73.3438C114.165 72.7046 113.646 72.1865 113.007 72.1865C112.368 72.1865 111.85 72.7046 111.85 73.3438C111.85 73.9829 112.368 74.501 113.007 74.501Z" fill="#F55F44" />
    <path opacity="0.5" d="M13.3924 15.9652C14.0315 15.9652 14.5496 15.447 14.5496 14.8079C14.5496 14.1688 14.0315 13.6506 13.3924 13.6506C12.7532 13.6506 12.2351 14.1688 12.2351 14.8079C12.2351 15.447 12.7532 15.9652 13.3924 15.9652Z" fill="#4D8AF0" />
    <path opacity="0.5" d="M1.15726 47.5338C1.7964 47.5338 2.31452 47.0156 2.31452 46.3765C2.31452 45.7374 1.7964 45.2192 1.15726 45.2192C0.518123 45.2192 0 45.7374 0 46.3765C0 47.0156 0.518123 47.5338 1.15726 47.5338Z" fill="#47E6B1" />
  </g>
  <defs>
    <linearGradient id="paint0_linear_233_1625" x1="62.5969" y1="102.979" x2="43.7868" y2="15.3118" gradientUnits="userSpaceOnUse">
      <stop stop-color="#808080" stop-opacity="0.25" />
      <stop offset="0.54" stop-color="#808080" stop-opacity="0.12" />
      <stop offset="1" stop-color="#808080" stop-opacity="0.1" />
    </linearGradient>
    <linearGradient id="paint1_linear_233_1625" x1="16875.8" y1="-2197.55" x2="16796.9" y2="-2565" gradientUnits="userSpaceOnUse">
      <stop stop-color="#808080" stop-opacity="0.25" />
      <stop offset="0.54" stop-color="#808080" stop-opacity="0.12" />
      <stop offset="1" stop-color="#808080" stop-opacity="0.1" />
    </linearGradient>
    <linearGradient id="paint2_linear_233_1625" x1="4927.77" y1="250.658" x2="4817.78" y2="-261.962" gradientUnits="userSpaceOnUse">
      <stop stop-color="#808080" stop-opacity="0.25" />
      <stop offset="0.54" stop-color="#808080" stop-opacity="0.12" />
      <stop offset="1" stop-color="#808080" stop-opacity="0.1" />
    </linearGradient>
    <linearGradient id="paint3_linear_233_1625" x1="30956.3" y1="63727.3" x2="30956.3" y2="11417.4" gradientUnits="userSpaceOnUse">
      <stop stop-color="#808080" stop-opacity="0.25" />
      <stop offset="0.54" stop-color="#808080" stop-opacity="0.12" />
      <stop offset="1" stop-color="#808080" stop-opacity="0.1" />
    </linearGradient>
    <linearGradient id="paint4_linear_233_1625" x1="15020.9" y1="1202.95" x2="15020.9" y2="827.143" gradientUnits="userSpaceOnUse">
      <stop stop-color="#808080" stop-opacity="0.25" />
      <stop offset="0.54" stop-color="#808080" stop-opacity="0.12" />
      <stop offset="1" stop-color="#808080" stop-opacity="0.1" />
    </linearGradient>
    <linearGradient id="paint5_linear_233_1625" x1="5918.9" y1="1593.21" x2="5918.9" y2="1068.34" gradientUnits="userSpaceOnUse">
      <stop stop-color="#808080" stop-opacity="0.25" />
      <stop offset="0.54" stop-color="#808080" stop-opacity="0.12" />
      <stop offset="1" stop-color="#808080" stop-opacity="0.1" />
    </linearGradient>
    <clipPath id="clip0_233_1625">
      <rect width="126.048" height="120" fill="white" />
    </clipPath>
  </defs>
</svg>