<svg width="24" height="24" viewBox="0 0 24 24" fill="none" xmlns="http://www.w3.org/2000/svg">
  <path d="M11.9998 19.7626C11.1514 19.7626 10.4436 19.4438 9.98889 19.2516C9.73577 19.1438 9.4592 19.336 9.47795 19.6079L9.64202 21.9985C9.65139 22.1438 9.82014 22.2188 9.93733 22.1297L10.617 21.6141C10.7014 21.5485 10.828 21.5719 10.8842 21.661L11.8451 23.1657C11.9154 23.2782 12.0842 23.2782 12.1545 23.1657L13.1154 21.661C13.1717 21.5719 13.2983 21.5485 13.3826 21.6141L14.0623 22.1297C14.1795 22.2188 14.3483 22.1438 14.3576 21.9985L14.5217 19.6079C14.5404 19.336 14.2639 19.1391 14.0108 19.2516C13.5514 19.4438 12.8483 19.7626 11.9998 19.7626Z" fill="#828282" />
  <path d="M18.6419 13.7391L16.3919 11.4375C16.3919 4.03125 12.0232 0.75 12.0232 0.75C12.0232 0.75 7.61225 4.03125 7.61225 11.4375L5.36225 13.7391C5.27788 13.8234 5.24038 13.95 5.25913 14.0719L6.12163 19.3125C6.16381 19.5797 6.45444 19.7109 6.67475 19.5656L9.82006 17.4375C9.82006 17.4375 10.7904 18.375 12.0279 18.375C13.2654 18.375 14.1888 17.4375 14.1888 17.4375L17.3341 19.5656C17.5497 19.7109 17.8404 19.5797 17.8872 19.3125L18.7544 14.0672C18.7638 13.9453 18.7263 13.8234 18.6419 13.7391ZM12.0232 9C11.2263 9 10.5841 8.32969 10.5841 7.5C10.5841 6.67031 11.231 6 12.0232 6C12.8201 6 13.4623 6.67031 13.4623 7.5C13.4623 8.32969 12.8201 9 12.0232 9Z" fill="#828282" />
</svg>